<mxfile host="Electron" modified="2024-05-17T08:46:43.833Z" agent="Mozilla/5.0 (Windows NT 10.0; Win64; x64) AppleWebKit/537.36 (KHTML, like Gecko) draw.io/24.2.5 Chrome/120.0.6099.109 Electron/28.1.0 Safari/537.36" etag="VYSF604joMi2sWOjnc0N" version="24.2.5" type="device">
  <diagram name="Page-1" id="sQSzlT0UaLFm5AQuz467">
    <mxGraphModel dx="1235" dy="1900" grid="1" gridSize="10" guides="1" tooltips="1" connect="1" arrows="1" fold="1" page="1" pageScale="1" pageWidth="827" pageHeight="1169" math="0" shadow="0">
      <root>
        <mxCell id="0" />
        <mxCell id="1" parent="0" />
        <mxCell id="I-GEz66fSVdPfn5yzrGn-10" value="" style="endArrow=classic;html=1;rounded=0;exitX=1;exitY=0.5;exitDx=0;exitDy=0;entryX=-0.006;entryY=0.176;entryDx=0;entryDy=0;entryPerimeter=0;" parent="1" source="I-GEz66fSVdPfn5yzrGn-21" edge="1">
          <mxGeometry width="50" height="50" relative="1" as="geometry">
            <mxPoint x="-80" y="140" as="sourcePoint" />
            <mxPoint x="158.79999999999995" y="78.44000000000005" as="targetPoint" />
          </mxGeometry>
        </mxCell>
        <mxCell id="I-GEz66fSVdPfn5yzrGn-12" value="READ_CMD" style="ellipse;whiteSpace=wrap;html=1;aspect=fixed;" parent="1" vertex="1">
          <mxGeometry y="280" width="80" height="80" as="geometry" />
        </mxCell>
        <mxCell id="I-GEz66fSVdPfn5yzrGn-13" value="DONE" style="ellipse;whiteSpace=wrap;html=1;aspect=fixed;" parent="1" vertex="1">
          <mxGeometry x="620" y="280" width="80" height="80" as="geometry" />
        </mxCell>
        <mxCell id="I-GEz66fSVdPfn5yzrGn-19" value="" style="endArrow=classic;html=1;rounded=0;exitX=0.5;exitY=1;exitDx=0;exitDy=0;entryX=0.5;entryY=1;entryDx=0;entryDy=0;" parent="1" source="I-GEz66fSVdPfn5yzrGn-13" target="I-GEz66fSVdPfn5yzrGn-12" edge="1">
          <mxGeometry width="50" height="50" relative="1" as="geometry">
            <mxPoint x="660" y="560" as="sourcePoint" />
            <mxPoint x="40" y="440" as="targetPoint" />
            <Array as="points">
              <mxPoint x="660" y="680" />
              <mxPoint x="460" y="680" />
              <mxPoint x="40" y="680" />
            </Array>
          </mxGeometry>
        </mxCell>
        <mxCell id="I-GEz66fSVdPfn5yzrGn-21" value="LOAD" style="ellipse;whiteSpace=wrap;html=1;aspect=fixed;" parent="1" vertex="1">
          <mxGeometry y="-120" width="80" height="80" as="geometry" />
        </mxCell>
        <mxCell id="I-GEz66fSVdPfn5yzrGn-22" value="" style="curved=1;endArrow=classic;html=1;rounded=0;exitX=0.5;exitY=0;exitDx=0;exitDy=0;entryX=0.946;entryY=0.19;entryDx=0;entryDy=0;entryPerimeter=0;strokeColor=default;flowAnimation=0;" parent="1" edge="1">
          <mxGeometry width="50" height="50" relative="1" as="geometry">
            <mxPoint x="40" y="-118" as="sourcePoint" />
            <mxPoint x="76" y="-103" as="targetPoint" />
            <Array as="points">
              <mxPoint x="50" y="-159" />
              <mxPoint x="100" y="-169" />
              <mxPoint x="110" y="-129" />
            </Array>
          </mxGeometry>
        </mxCell>
        <mxCell id="I-GEz66fSVdPfn5yzrGn-23" value="&lt;font style=&quot;font-size: 14px;&quot;&gt;data_valid = 1&lt;/font&gt;" style="text;html=1;align=center;verticalAlign=middle;resizable=0;points=[];autosize=1;strokeColor=none;fillColor=none;" parent="1" vertex="1">
          <mxGeometry x="30" y="-210" width="110" height="30" as="geometry" />
        </mxCell>
        <mxCell id="I-GEz66fSVdPfn5yzrGn-29" value="&lt;font style=&quot;font-size: 14px;&quot;&gt;data_valid = 0&lt;/font&gt;" style="text;html=1;align=center;verticalAlign=middle;resizable=0;points=[];autosize=1;strokeColor=none;fillColor=none;" parent="1" vertex="1">
          <mxGeometry x="110" y="-40" width="110" height="30" as="geometry" />
        </mxCell>
        <mxCell id="I-GEz66fSVdPfn5yzrGn-62" value="&lt;font style=&quot;font-size: 14px;&quot;&gt;busy = 0&lt;/font&gt;" style="text;html=1;align=center;verticalAlign=middle;resizable=0;points=[];autosize=1;strokeColor=none;fillColor=none;" parent="1" vertex="1">
          <mxGeometry x="590" y="200" width="80" height="30" as="geometry" />
        </mxCell>
        <mxCell id="OwCiZz271TO3-0X-m1Y6-1" value="BULID_QUEUE" style="ellipse;whiteSpace=wrap;html=1;aspect=fixed;" vertex="1" parent="1">
          <mxGeometry x="160" y="40" width="80" height="80" as="geometry" />
        </mxCell>
        <mxCell id="OwCiZz271TO3-0X-m1Y6-2" value="EXTRACT_MAX" style="ellipse;whiteSpace=wrap;html=1;aspect=fixed;" vertex="1" parent="1">
          <mxGeometry x="160" y="200" width="80" height="80" as="geometry" />
        </mxCell>
        <mxCell id="OwCiZz271TO3-0X-m1Y6-3" value="&lt;div&gt;INCREASE_VALUE&lt;/div&gt;" style="ellipse;whiteSpace=wrap;html=1;aspect=fixed;" vertex="1" parent="1">
          <mxGeometry x="160" y="360" width="80" height="80" as="geometry" />
        </mxCell>
        <mxCell id="OwCiZz271TO3-0X-m1Y6-4" value="INSERT_DATA" style="ellipse;whiteSpace=wrap;html=1;aspect=fixed;" vertex="1" parent="1">
          <mxGeometry x="160" y="520" width="80" height="80" as="geometry" />
        </mxCell>
        <mxCell id="OwCiZz271TO3-0X-m1Y6-5" value="MAX_HEAPIFY" style="ellipse;whiteSpace=wrap;html=1;aspect=fixed;" vertex="1" parent="1">
          <mxGeometry x="320" y="40" width="80" height="80" as="geometry" />
        </mxCell>
        <mxCell id="OwCiZz271TO3-0X-m1Y6-7" value="" style="endArrow=classic;html=1;rounded=0;entryX=0;entryY=0.5;entryDx=0;entryDy=0;" edge="1" parent="1">
          <mxGeometry width="50" height="50" relative="1" as="geometry">
            <mxPoint x="240" y="70" as="sourcePoint" />
            <mxPoint x="320" y="70" as="targetPoint" />
          </mxGeometry>
        </mxCell>
        <mxCell id="OwCiZz271TO3-0X-m1Y6-9" value="" style="endArrow=classic;html=1;rounded=0;entryX=0;entryY=0.5;entryDx=0;entryDy=0;" edge="1" parent="1">
          <mxGeometry width="50" height="50" relative="1" as="geometry">
            <mxPoint x="320.0000000000002" y="90" as="sourcePoint" />
            <mxPoint x="240.00000000000023" y="90" as="targetPoint" />
          </mxGeometry>
        </mxCell>
        <mxCell id="OwCiZz271TO3-0X-m1Y6-11" value="" style="endArrow=classic;html=1;rounded=0;entryX=1;entryY=0.5;entryDx=0;entryDy=0;exitX=0.5;exitY=1;exitDx=0;exitDy=0;" edge="1" parent="1" source="OwCiZz271TO3-0X-m1Y6-5" target="OwCiZz271TO3-0X-m1Y6-2">
          <mxGeometry width="50" height="50" relative="1" as="geometry">
            <mxPoint x="330.0000000000002" y="100" as="sourcePoint" />
            <mxPoint x="250.00000000000023" y="100" as="targetPoint" />
          </mxGeometry>
        </mxCell>
        <mxCell id="OwCiZz271TO3-0X-m1Y6-12" value="" style="endArrow=classic;html=1;rounded=0;entryX=0;entryY=1;entryDx=0;entryDy=0;exitX=1;exitY=0;exitDx=0;exitDy=0;" edge="1" parent="1" source="OwCiZz271TO3-0X-m1Y6-2" target="OwCiZz271TO3-0X-m1Y6-5">
          <mxGeometry width="50" height="50" relative="1" as="geometry">
            <mxPoint x="260" y="140" as="sourcePoint" />
            <mxPoint x="340" y="140" as="targetPoint" />
          </mxGeometry>
        </mxCell>
        <mxCell id="OwCiZz271TO3-0X-m1Y6-13" value="" style="endArrow=classic;html=1;rounded=0;entryX=0.5;entryY=1;entryDx=0;entryDy=0;exitX=0.5;exitY=0;exitDx=0;exitDy=0;" edge="1" parent="1" source="OwCiZz271TO3-0X-m1Y6-4" target="OwCiZz271TO3-0X-m1Y6-3">
          <mxGeometry width="50" height="50" relative="1" as="geometry">
            <mxPoint x="420" y="220" as="sourcePoint" />
            <mxPoint x="300" y="340" as="targetPoint" />
          </mxGeometry>
        </mxCell>
        <mxCell id="OwCiZz271TO3-0X-m1Y6-15" value="" style="endArrow=classic;html=1;rounded=0;entryX=0.5;entryY=0;entryDx=0;entryDy=0;exitX=0.5;exitY=1;exitDx=0;exitDy=0;" edge="1" parent="1" source="OwCiZz271TO3-0X-m1Y6-1" target="I-GEz66fSVdPfn5yzrGn-13">
          <mxGeometry width="50" height="50" relative="1" as="geometry">
            <mxPoint x="334" y="210" as="sourcePoint" />
            <mxPoint x="414" y="210" as="targetPoint" />
          </mxGeometry>
        </mxCell>
        <mxCell id="OwCiZz271TO3-0X-m1Y6-16" value="" style="curved=1;endArrow=classic;html=1;rounded=0;exitX=0.5;exitY=0;exitDx=0;exitDy=0;entryX=0.946;entryY=0.19;entryDx=0;entryDy=0;entryPerimeter=0;strokeColor=default;flowAnimation=0;" edge="1" parent="1">
          <mxGeometry width="50" height="50" relative="1" as="geometry">
            <mxPoint x="360" y="41" as="sourcePoint" />
            <mxPoint x="396" y="56" as="targetPoint" />
            <Array as="points">
              <mxPoint x="370" />
              <mxPoint x="420" y="-10" />
              <mxPoint x="430" y="30" />
            </Array>
          </mxGeometry>
        </mxCell>
        <mxCell id="OwCiZz271TO3-0X-m1Y6-17" value="&lt;font style=&quot;font-size: 14px;&quot;&gt;Not done&lt;/font&gt;" style="text;html=1;align=center;verticalAlign=middle;resizable=0;points=[];autosize=1;strokeColor=none;fillColor=none;" vertex="1" parent="1">
          <mxGeometry x="385" y="-50" width="80" height="30" as="geometry" />
        </mxCell>
        <mxCell id="OwCiZz271TO3-0X-m1Y6-18" value="&lt;font style=&quot;font-size: 14px;&quot;&gt;while not complete&lt;/font&gt;" style="text;html=1;align=center;verticalAlign=middle;resizable=0;points=[];autosize=1;strokeColor=none;fillColor=none;" vertex="1" parent="1">
          <mxGeometry x="215" y="30" width="140" height="30" as="geometry" />
        </mxCell>
        <mxCell id="OwCiZz271TO3-0X-m1Y6-19" value="&lt;font style=&quot;font-size: 14px;&quot;&gt;Max_Heapify_Done = 1&lt;/font&gt;" style="text;html=1;align=center;verticalAlign=middle;resizable=0;points=[];autosize=1;strokeColor=none;fillColor=none;" vertex="1" parent="1">
          <mxGeometry x="195" y="100" width="170" height="30" as="geometry" />
        </mxCell>
      </root>
    </mxGraphModel>
  </diagram>
</mxfile>
